<svg width="24" height="24" viewBox="0 0 24 24" fill="none" xmlns="http://www.w3.org/2000/svg">
<rect width="24" height="24" fill="#fef3c7"/>
<path fill-rule="evenodd" clip-rule="evenodd" d="M12 1.36002C9.47259 1.35893 7.02733 2.25756 5.10207 3.895C3.17682 5.53245 1.89731 7.80175 1.49268 10.2966C1.08804 12.7914 1.5847 15.3488 2.89371 17.5108C4.20273 19.6728 6.23861 21.2982 8.63681 22.096C9.168 22.1936 9.36321 21.8656 9.36321 21.584C9.36321 21.3296 9.35361 20.6624 9.34721 19.7744C6.38881 20.416 5.76321 18.3472 5.76321 18.3472C5.28001 17.1184 4.58241 16.7904 4.58241 16.7904C3.61601 16.1312 4.65601 16.144 4.65601 16.144C5.72321 16.2192 6.28481 17.24 6.28481 17.24C7.23521 18.8672 8.77601 18.3968 9.38241 18.1248C9.47841 17.4368 9.7536 16.968 10.0576 16.7024C7.6944 16.4336 5.21121 15.5216 5.21121 11.4432C5.21121 10.2816 5.62721 9.33282 6.30721 8.58882C6.19681 8.32002 5.83201 7.23842 6.41121 5.77282C6.41121 5.77282 7.30401 5.48642 9.33601 6.86242C10.184 6.62722 11.096 6.51042 12 6.50562C12.8998 6.50688 13.7956 6.62684 14.664 6.86242C16.696 5.48642 17.5872 5.77442 17.5872 5.77442C18.168 7.23842 17.8032 8.31842 17.6928 8.58882C18.376 9.33282 18.7872 10.2816 18.7872 11.4432C18.7872 15.5312 16.2992 16.4304 13.9296 16.6944C14.3104 17.0224 14.6496 17.672 14.6496 18.6656C14.6496 20.0864 14.6384 21.2336 14.6384 21.5824C14.6384 21.8672 14.8304 22.1984 15.3696 22.0944C17.7633 21.2919 19.7938 19.6647 21.0984 17.5033C22.4031 15.3419 22.8969 12.7871 22.4918 10.2952C22.0866 7.80326 20.8088 5.53651 18.8866 3.89976C16.9645 2.263 14.523 1.36284 11.9984 1.36002H12Z" fill="#1b0d03"/>
</svg>
